<svg xmlns="http://www.w3.org/2000/svg" width="1200" height="630" viewBox="0 0 1200 630">
  <defs>
    <linearGradient id="bg" x1="0" y1="0" x2="1" y2="1">
      <stop offset="0%" stop-color="#040407"/>
      <stop offset="100%" stop-color="#080814"/>
    </linearGradient>
    <filter id="glow">
      <feGaussianBlur stdDeviation="8" result="blur"/>
      <feMerge><feMergeNode in="blur"/><feMergeNode in="SourceGraphic"/></feMerge>
    </filter>
  </defs>
  <rect width="1200" height="630" fill="url(#bg)"/>
  <!-- Grid lines -->
  <line x1="0" y1="210" x2="1200" y2="210" stroke="#1a1a2e" stroke-width="1"/>
  <line x1="0" y1="420" x2="1200" y2="420" stroke="#1a1a2e" stroke-width="1"/>
  <line x1="400" y1="0" x2="400" y2="630" stroke="#1a1a2e" stroke-width="1"/>
  <line x1="800" y1="0" x2="800" y2="630" stroke="#1a1a2e" stroke-width="1"/>
  <!-- Glow circle -->
  <circle cx="600" cy="315" r="200" fill="none" stroke="#1d7fff" stroke-width="1" opacity="0.15"/>
  <circle cx="600" cy="315" r="120" fill="rgba(29,127,255,0.04)"/>
  <!-- Accent line top -->
  <rect x="80" y="80" width="60" height="3" fill="#1d7fff"/>
  <!-- Label -->
  <text x="80" y="118" font-family="monospace" font-size="13" fill="#1d7fff" letter-spacing="3" opacity="0.9">CGI PRODUCTION STUDIO</text>
  <!-- Main title -->
  <text x="80" y="230" font-family="Arial Black, sans-serif" font-size="96" font-weight="900" fill="#ffffff" letter-spacing="-2">RYMPE</text>
  <!-- Subtitle -->
  <text x="82" y="286" font-family="Arial, sans-serif" font-size="22" fill="#8892b0" letter-spacing="1">Cinematic 3D · Web3 · NFT · Tech Brands</text>
  <!-- Divider -->
  <line x1="80" y1="316" x2="480" y2="316" stroke="#1a1a2e" stroke-width="1"/>
  <!-- Stats -->
  <text x="80" y="376" font-family="Arial Black, sans-serif" font-size="36" font-weight="900" fill="#1d7fff">48h</text>
  <text x="80" y="402" font-family="monospace" font-size="11" fill="#8892b0" letter-spacing="1">QUOTE TURNAROUND</text>
  <text x="260" y="376" font-family="Arial Black, sans-serif" font-size="36" font-weight="900" fill="#ffffff">$999+</text>
  <text x="260" y="402" font-family="monospace" font-size="11" fill="#8892b0" letter-spacing="1">STARTING PRICE</text>
  <!-- CTA -->
  <rect x="80" y="450" width="280" height="52" fill="#1d7fff" rx="2"/>
  <text x="220" y="482" font-family="Arial, sans-serif" font-size="14" font-weight="700" fill="#000000" text-anchor="middle" letter-spacing="1">GET A QUOTE →</text>
  <!-- URL -->
  <text x="80" y="560" font-family="monospace" font-size="13" fill="#4a5568" letter-spacing="1">rympe-studio.vercel.app</text>
  <!-- Right decoration - dot grid -->
  <g opacity="0.2">
    <circle cx="780" cy="140" r="1.5" fill="#1d7fff"/><circle cx="818" cy="140" r="1.5" fill="#1d7fff"/><circle cx="856" cy="140" r="1.5" fill="#1d7fff"/><circle cx="894" cy="140" r="1.5" fill="#1d7fff"/><circle cx="932" cy="140" r="1.5" fill="#1d7fff"/><circle cx="970" cy="140" r="1.5" fill="#1d7fff"/><circle cx="1008" cy="140" r="1.5" fill="#1d7fff"/><circle cx="1046" cy="140" r="1.5" fill="#1d7fff"/><circle cx="1084" cy="140" r="1.5" fill="#1d7fff"/><circle cx="1122" cy="140" r="1.5" fill="#1d7fff"/><circle cx="1160" cy="140" r="1.5" fill="#1d7fff"/><circle cx="1198" cy="140" r="1.5" fill="#1d7fff"/><circle cx="780" cy="188" r="1.5" fill="#1d7fff"/><circle cx="818" cy="188" r="1.5" fill="#1d7fff"/><circle cx="856" cy="188" r="1.5" fill="#1d7fff"/><circle cx="894" cy="188" r="1.5" fill="#1d7fff"/><circle cx="932" cy="188" r="1.5" fill="#1d7fff"/><circle cx="970" cy="188" r="1.5" fill="#1d7fff"/><circle cx="1008" cy="188" r="1.5" fill="#1d7fff"/><circle cx="1046" cy="188" r="1.5" fill="#1d7fff"/><circle cx="1084" cy="188" r="1.5" fill="#1d7fff"/><circle cx="1122" cy="188" r="1.5" fill="#1d7fff"/><circle cx="1160" cy="188" r="1.5" fill="#1d7fff"/><circle cx="1198" cy="188" r="1.5" fill="#1d7fff"/><circle cx="780" cy="236" r="1.5" fill="#1d7fff"/><circle cx="818" cy="236" r="1.5" fill="#1d7fff"/><circle cx="856" cy="236" r="1.5" fill="#1d7fff"/><circle cx="894" cy="236" r="1.5" fill="#1d7fff"/><circle cx="932" cy="236" r="1.5" fill="#1d7fff"/><circle cx="970" cy="236" r="1.5" fill="#1d7fff"/><circle cx="1008" cy="236" r="1.5" fill="#1d7fff"/><circle cx="1046" cy="236" r="1.5" fill="#1d7fff"/><circle cx="1084" cy="236" r="1.5" fill="#1d7fff"/><circle cx="1122" cy="236" r="1.5" fill="#1d7fff"/><circle cx="1160" cy="236" r="1.5" fill="#1d7fff"/><circle cx="1198" cy="236" r="1.5" fill="#1d7fff"/><circle cx="780" cy="284" r="1.5" fill="#1d7fff"/><circle cx="818" cy="284" r="1.5" fill="#1d7fff"/><circle cx="856" cy="284" r="1.5" fill="#1d7fff"/><circle cx="894" cy="284" r="1.5" fill="#1d7fff"/><circle cx="932" cy="284" r="1.5" fill="#1d7fff"/><circle cx="970" cy="284" r="1.5" fill="#1d7fff"/><circle cx="1008" cy="284" r="1.5" fill="#1d7fff"/><circle cx="1046" cy="284" r="1.5" fill="#1d7fff"/><circle cx="1084" cy="284" r="1.5" fill="#1d7fff"/><circle cx="1122" cy="284" r="1.5" fill="#1d7fff"/><circle cx="1160" cy="284" r="1.5" fill="#1d7fff"/><circle cx="1198" cy="284" r="1.5" fill="#1d7fff"/><circle cx="780" cy="332" r="1.5" fill="#1d7fff"/><circle cx="818" cy="332" r="1.5" fill="#1d7fff"/><circle cx="856" cy="332" r="1.5" fill="#1d7fff"/><circle cx="894" cy="332" r="1.5" fill="#1d7fff"/><circle cx="932" cy="332" r="1.5" fill="#1d7fff"/><circle cx="970" cy="332" r="1.5" fill="#1d7fff"/><circle cx="1008" cy="332" r="1.5" fill="#1d7fff"/><circle cx="1046" cy="332" r="1.5" fill="#1d7fff"/><circle cx="1084" cy="332" r="1.5" fill="#1d7fff"/><circle cx="1122" cy="332" r="1.5" fill="#1d7fff"/><circle cx="1160" cy="332" r="1.5" fill="#1d7fff"/><circle cx="1198" cy="332" r="1.5" fill="#1d7fff"/><circle cx="780" cy="380" r="1.5" fill="#1d7fff"/><circle cx="818" cy="380" r="1.5" fill="#1d7fff"/><circle cx="856" cy="380" r="1.5" fill="#1d7fff"/><circle cx="894" cy="380" r="1.5" fill="#1d7fff"/><circle cx="932" cy="380" r="1.5" fill="#1d7fff"/><circle cx="970" cy="380" r="1.5" fill="#1d7fff"/><circle cx="1008" cy="380" r="1.5" fill="#1d7fff"/><circle cx="1046" cy="380" r="1.5" fill="#1d7fff"/><circle cx="1084" cy="380" r="1.5" fill="#1d7fff"/><circle cx="1122" cy="380" r="1.5" fill="#1d7fff"/><circle cx="1160" cy="380" r="1.5" fill="#1d7fff"/><circle cx="1198" cy="380" r="1.5" fill="#1d7fff"/><circle cx="780" cy="428" r="1.5" fill="#1d7fff"/><circle cx="818" cy="428" r="1.5" fill="#1d7fff"/><circle cx="856" cy="428" r="1.5" fill="#1d7fff"/><circle cx="894" cy="428" r="1.5" fill="#1d7fff"/><circle cx="932" cy="428" r="1.5" fill="#1d7fff"/><circle cx="970" cy="428" r="1.5" fill="#1d7fff"/><circle cx="1008" cy="428" r="1.5" fill="#1d7fff"/><circle cx="1046" cy="428" r="1.5" fill="#1d7fff"/><circle cx="1084" cy="428" r="1.5" fill="#1d7fff"/><circle cx="1122" cy="428" r="1.5" fill="#1d7fff"/><circle cx="1160" cy="428" r="1.5" fill="#1d7fff"/><circle cx="1198" cy="428" r="1.5" fill="#1d7fff"/><circle cx="780" cy="476" r="1.5" fill="#1d7fff"/><circle cx="818" cy="476" r="1.5" fill="#1d7fff"/><circle cx="856" cy="476" r="1.5" fill="#1d7fff"/><circle cx="894" cy="476" r="1.5" fill="#1d7fff"/><circle cx="932" cy="476" r="1.5" fill="#1d7fff"/><circle cx="970" cy="476" r="1.5" fill="#1d7fff"/><circle cx="1008" cy="476" r="1.5" fill="#1d7fff"/><circle cx="1046" cy="476" r="1.5" fill="#1d7fff"/><circle cx="1084" cy="476" r="1.5" fill="#1d7fff"/><circle cx="1122" cy="476" r="1.5" fill="#1d7fff"/><circle cx="1160" cy="476" r="1.5" fill="#1d7fff"/><circle cx="1198" cy="476" r="1.5" fill="#1d7fff"/>
  </g>
  <!-- Right accent circle -->
  <circle cx="980" cy="315" r="140" fill="none" stroke="#1d7fff" stroke-width="0.5" opacity="0.3"/>
  <text x="980" y="290" font-family="Arial Black, sans-serif" font-size="64" font-weight="900" fill="#1d7fff" text-anchor="middle" opacity="0.15">R</text>
  <text x="980" y="340" font-family="monospace" font-size="11" fill="#1d7fff" text-anchor="middle" letter-spacing="2" opacity="0.6">CINEMATIC CGI</text>
  <text x="980" y="360" font-family="monospace" font-size="11" fill="#8892b0" text-anchor="middle" letter-spacing="2" opacity="0.5">FOR WEB3 BRANDS</text>
</svg>